<svg xmlns="http://www.w3.org/2000/svg" version="1.1" xmlns:xlink="http://www.w3.org/1999/xlink" width="1000" height="1000"><svg width="1000" height="1000" viewBox="0 0 1000 1000" fill="none" xmlns="http://www.w3.org/2000/svg">
<rect width="1000" height="1000" rx="120" fill="white"></rect>
<g clip-path="url(#clip0_3_2)">
<path d="M827.5 434.5V317.255C827.498 309.595 827.061 301.94 826.19 294.33C821.814 254.268 805.09 216.558 778.334 186.421C751.577 156.285 716.112 135.214 676.85 126.126C560.316 100.744 439.684 100.744 323.15 126.126C283.89 135.218 248.428 156.291 221.672 186.426C194.916 216.562 178.19 254.269 173.81 294.33C172.939 301.94 172.502 309.595 172.5 317.255V434.5C155.128 434.5 138.468 441.401 126.184 453.684C113.901 465.968 107 482.628 107 500L107 532.75C107 550.122 113.901 566.782 126.184 579.065C138.468 591.349 155.128 598.25 172.5 598.25V663.75C172.485 689.174 178.397 714.251 189.767 736.991C201.137 759.731 217.652 779.508 238 794.75V811.125C237.98 831.429 245.504 851.017 259.113 866.085C272.723 881.153 291.445 890.627 311.647 892.668C331.848 894.708 352.087 889.17 368.435 877.127C384.782 865.085 396.072 847.398 400.112 827.5H599.888C603.928 847.398 615.218 865.085 631.565 877.127C647.913 889.17 668.152 894.708 688.353 892.668C708.555 890.627 727.277 881.153 740.887 866.085C754.496 851.017 762.02 831.429 762 811.125V794.75C782.348 779.508 798.863 759.731 810.233 736.991C821.603 714.251 827.515 689.174 827.5 663.75V598.25C844.872 598.25 861.532 591.349 873.815 579.065C886.099 566.782 893 550.122 893 532.75V500C893 482.628 886.099 465.968 873.815 453.684C861.532 441.401 844.872 434.5 827.5 434.5ZM238 532.75C238 532.75 243.352 472.869 243.352 434.5C243.352 396.131 238 336.25 238 336.25H762C762 336.25 756.648 396.131 756.648 434.5C756.648 472.869 762 532.75 762 532.75H238ZM337.953 189.923C444.779 166.684 555.352 166.684 662.178 189.923C682.933 194.76 702.16 204.678 718.132 218.786C734.104 232.895 746.32 250.751 753.681 270.75H631C631 262.064 627.55 253.734 621.408 247.592C615.266 241.45 606.936 238 598.25 238H401.75C393.064 238 384.734 241.45 378.592 247.592C372.45 253.734 369 262.064 369 270.75H246.318C253.692 250.735 265.928 232.869 281.924 218.759C297.92 204.65 317.174 194.74 337.953 189.923ZM663.75 762H336.25C310.192 762 285.202 751.649 266.777 733.223C248.351 714.798 238 689.807 238 663.75V598.25H303.5C303.5 598.25 303.5 584.553 303.5 597.343C303.5 606.029 306.95 614.359 313.092 620.501C319.234 626.642 327.564 630.093 336.25 630.093C344.936 630.093 353.266 626.642 359.408 620.501C365.55 614.359 369 606.029 369 597.343C369 584.553 369 598.25 369 598.25H631C631 598.25 631 584.553 631 597.343C631 606.029 634.45 614.359 640.592 620.501C646.734 626.642 655.064 630.093 663.75 630.093C672.436 630.093 680.766 626.642 686.908 620.501C693.05 614.359 696.5 606.029 696.5 597.343C696.5 584.553 696.5 598.25 696.5 598.25H762V663.75C762 689.807 751.649 714.798 733.223 733.223C714.798 751.649 689.808 762 663.75 762Z" fill="#024885"></path>
</g>
<defs>
<clipPath id="SvgjsClipPath1014">
<rect width="786" height="786" fill="white" transform="translate(107 107)"></rect>
</clipPath>
</defs>
</svg><style>@media (prefers-color-scheme: light) { :root { filter: none; } }
@media (prefers-color-scheme: dark) { :root { filter: none; } }
</style></svg>